<svg width="112" height="32" viewBox="0 0 112 32" fill="none" xmlns="http://www.w3.org/2000/svg">
<path d="M0 2C0 0.895431 0.895431 0 2 0H30C31.1046 0 32 0.895431 32 2V30C32 31.1046 31.1046 32 30 32H2C0.895431 32 0 31.1046 0 30V2Z" fill="white"/>
<path d="M18.8399 12.0662V11.0309C18.8399 10.9412 18.7367 10.8917 18.6671 10.9466L12.6296 15.6622C12.5783 15.7021 12.5368 15.7532 12.5082 15.8115C12.4797 15.8699 12.4648 15.934 12.4648 15.999C12.4648 16.064 12.4797 16.1281 12.5082 16.1865C12.5368 16.2449 12.5783 16.296 12.6296 16.3359L18.6671 21.0515C18.7381 21.1064 18.8399 21.0568 18.8399 20.9671V19.9318C18.8399 19.8662 18.8091 19.8033 18.7582 19.7631L13.9367 15.9997L18.7582 12.235C18.8091 12.1948 18.8399 12.1318 18.8399 12.0662Z" fill="#D9D9D9"/>
<path d="M2 1H30V-1H2V1ZM31 2V30H33V2H31ZM30 31H2V33H30V31ZM1 30V2H-1V30H1ZM2 31C1.44772 31 1 30.5523 1 30H-1C-1 31.6569 0.343146 33 2 33V31ZM31 30C31 30.5523 30.5523 31 30 31V33C31.6569 33 33 31.6569 33 30H31ZM30 1C30.5523 1 31 1.44772 31 2H33C33 0.343146 31.6569 -1 30 -1V1ZM2 -1C0.343146 -1 -1 0.343146 -1 2H1C1 1.44772 1.44772 1 2 1V-1Z" fill="#D9D9D9"/>
<path d="M40 2C40 0.895431 40.8954 0 42 0H70C71.1046 0 72 0.895431 72 2V30C72 31.1046 71.1046 32 70 32H42C40.8954 32 40 31.1046 40 30V2Z" fill="white"/>
<path d="M57.0459 10.9922V21H55.7812V12.5713L53.2314 13.501V12.3594L56.8477 10.9922H57.0459Z" fill="black" fill-opacity="0.85"/>
<path d="M42 1H70V-1H42V1ZM71 2V30H73V2H71ZM70 31H42V33H70V31ZM41 30V2H39V30H41ZM42 31C41.4477 31 41 30.5523 41 30H39C39 31.6569 40.3431 33 42 33V31ZM71 30C71 30.5523 70.5523 31 70 31V33C71.6569 33 73 31.6569 73 30H71ZM70 1C70.5523 1 71 1.44772 71 2H73C73 0.343146 71.6569 -1 70 -1V1ZM42 -1C40.3431 -1 39 0.343146 39 2H41C41 1.44772 41.4477 1 42 1V-1Z" fill="#1890FF"/>
<path d="M80 2C80 0.895431 80.8954 0 82 0H110C111.105 0 112 0.895431 112 2V30C112 31.1046 111.105 32 110 32H82C80.8954 32 80 31.1046 80 30V2Z" fill="white"/>
<path d="M99.3978 15.6628L93.3603 10.9472C93.3445 10.9348 93.3255 10.927 93.3056 10.9249C93.2856 10.9228 93.2654 10.9263 93.2474 10.9351C93.2294 10.944 93.2142 10.9577 93.2036 10.9747C93.193 10.9918 93.1874 11.0115 93.1875 11.0316V12.0668C93.1875 12.1325 93.2183 12.1954 93.2692 12.2356L98.0906 16.0003L93.2692 19.765C93.217 19.8052 93.1875 19.8682 93.1875 19.9338V20.9691C93.1875 21.0588 93.2906 21.1083 93.3603 21.0534L99.3978 16.3378C99.4491 16.2978 99.4906 16.2466 99.5191 16.1881C99.5477 16.1296 99.5625 16.0654 99.5625 16.0003C99.5625 15.9352 99.5477 15.871 99.5191 15.8125C99.4906 15.754 99.4491 15.7028 99.3978 15.6628Z" fill="black" fill-opacity="0.85"/>
<path d="M82 1H110V-1H82V1ZM111 2V30H113V2H111ZM110 31H82V33H110V31ZM81 30V2H79V30H81ZM82 31C81.4477 31 81 30.5523 81 30H79C79 31.6569 80.3431 33 82 33V31ZM111 30C111 30.5523 110.552 31 110 31V33C111.657 33 113 31.6569 113 30H111ZM110 1C110.552 1 111 1.44772 111 2H113C113 0.343146 111.657 -1 110 -1V1ZM82 -1C80.3431 -1 79 0.343146 79 2H81C81 1.44772 81.4477 1 82 1V-1Z" fill="#D9D9D9"/>
</svg>
