<svg width="32" height="32" viewBox="0 0 32 32" fill="none" xmlns="http://www.w3.org/2000/svg">
<path d="M22.1203 12H20.0003V5.33333C20.0003 4.6 19.4003 4 18.667 4H13.3337C12.6003 4 12.0003 4.6 12.0003 5.33333V12H9.88033C8.69366 12 8.09366 13.44 8.93366 14.28L15.0537 20.4C15.5737 20.92 16.4137 20.92 16.9337 20.4L23.0537 14.28C23.8937 13.44 23.307 12 22.1203 12ZM6.66699 25.3333C6.66699 26.0667 7.26699 26.6667 8.00033 26.6667H24.0003C24.7337 26.6667 25.3337 26.0667 25.3337 25.3333C25.3337 24.6 24.7337 24 24.0003 24H8.00033C7.26699 24 6.66699 24.6 6.66699 25.3333Z" fill="#016CFF"/>
</svg>
