<svg width="32" height="32" viewBox="0 0 32 32" fill="none" xmlns="http://www.w3.org/2000/svg">
<path d="M2.4142 15.565C5.21978 14.0196 8.35158 12.7298 11.2778 11.4334C16.312 9.30999 21.3662 7.22338 26.4714 5.28078C27.4647 4.94978 29.2494 4.62608 29.4244 6.09808C29.3286 8.18168 28.9344 10.2531 28.664 12.3245C27.9777 16.8797 27.1845 21.4193 26.411 25.9595C26.1445 27.4718 24.25 28.2547 23.0378 27.2869C20.1246 25.3191 17.189 23.3705 14.313 21.3571C13.3709 20.3998 14.2445 19.0251 15.0859 18.3415C17.4853 15.9769 20.0299 13.9679 22.3039 11.4811C22.9173 9.99978 21.1049 11.2482 20.5071 11.6307C17.2223 13.8943 14.0179 16.2961 10.5547 18.2855C8.78568 19.2593 6.72388 18.4271 4.95568 17.8837C3.37026 17.2273 1.04704 16.566 2.41404 15.5651L2.4142 15.565Z" fill="white"/>
</svg>
