<svg width="48" height="48" viewBox="0 0 48 48" fill="none" xmlns="http://www.w3.org/2000/svg">
<circle cx="24" cy="24" r="24" fill="#12141D"/>
<path d="M14.0327 39V35.8182L23.8764 25.6193C24.9276 24.5114 25.794 23.5407 26.4759 22.7074C27.1671 21.8646 27.6832 21.0644 28.0241 20.3068C28.3651 19.5492 28.5355 18.7443 28.5355 17.892C28.5355 16.9261 28.3082 16.0928 27.8537 15.392C27.3991 14.6818 26.7789 14.1373 25.9929 13.7585C25.2069 13.3703 24.3215 13.1761 23.3366 13.1761C22.295 13.1761 21.3859 13.3892 20.6094 13.8153C19.8329 14.2415 19.2363 14.8428 18.8196 15.6193C18.4029 16.3958 18.1946 17.3049 18.1946 18.3466H14.0043C14.0043 16.5758 14.4115 15.0275 15.2259 13.7017C16.0402 12.3759 17.1577 11.3485 18.5781 10.6193C19.9986 9.88068 21.6132 9.51136 23.4219 9.51136C25.2495 9.51136 26.8594 9.87595 28.2514 10.6051C29.6529 11.3248 30.7467 12.3097 31.5327 13.5597C32.3187 14.8002 32.7116 16.2017 32.7116 17.7642C32.7116 18.8438 32.508 19.8996 32.1009 20.9318C31.7031 21.964 31.0071 23.1146 30.0128 24.3835C29.0185 25.643 27.6359 27.1723 25.8651 28.9716L20.0838 35.0227V35.2358H33.1804V39H14.0327Z" fill="white"/>
</svg>
