<svg width="48" height="48" viewBox="0 0 48 48" fill="none" xmlns="http://www.w3.org/2000/svg">
<circle cx="24" cy="24" r="24" fill="#12141D"/>
<path d="M23.9261 39.3977C21.9754 39.3977 20.233 39.0616 18.6989 38.3892C17.1742 37.7169 15.9669 36.7841 15.0767 35.5909C14.196 34.3883 13.7225 32.9962 13.6562 31.4148H18.1165C18.1733 32.2765 18.4621 33.0246 18.983 33.6591C19.5133 34.2841 20.2045 34.767 21.0568 35.108C21.9091 35.4489 22.8561 35.6193 23.8977 35.6193C25.0436 35.6193 26.0568 35.4205 26.9375 35.0227C27.8277 34.625 28.5237 34.071 29.0256 33.3608C29.5275 32.6411 29.7784 31.8125 29.7784 30.875C29.7784 29.8996 29.5275 29.0426 29.0256 28.304C28.5331 27.5559 27.8087 26.9687 26.8523 26.5426C25.9053 26.1165 24.7595 25.9034 23.4148 25.9034H20.9574V22.3239H23.4148C24.4943 22.3239 25.4413 22.1297 26.2557 21.7415C27.0795 21.3532 27.7235 20.8134 28.1875 20.1222C28.6515 19.4214 28.8835 18.6023 28.8835 17.6648C28.8835 16.7652 28.6799 15.9839 28.2727 15.321C27.875 14.6487 27.3068 14.1231 26.5682 13.7443C25.839 13.3655 24.9773 13.1761 23.983 13.1761C23.036 13.1761 22.1506 13.3513 21.3267 13.7017C20.5123 14.0426 19.8494 14.535 19.3381 15.179C18.8267 15.8134 18.5521 16.5758 18.5142 17.4659H14.267C14.3144 15.8939 14.7784 14.5114 15.6591 13.3182C16.5492 12.125 17.7235 11.1922 19.1818 10.5199C20.6402 9.84754 22.2595 9.51136 24.0398 9.51136C25.9053 9.51136 27.5152 9.87595 28.8693 10.6051C30.233 11.3248 31.2841 12.286 32.0227 13.4886C32.7708 14.6913 33.1402 16.0076 33.1307 17.4375C33.1402 19.0663 32.6856 20.4489 31.767 21.5852C30.858 22.7216 29.6458 23.4839 28.1307 23.8722V24.0994C30.0625 24.393 31.5587 25.16 32.6193 26.4006C33.6894 27.6411 34.2197 29.1799 34.2102 31.017C34.2197 32.6174 33.7746 34.0521 32.875 35.321C31.9848 36.59 30.768 37.589 29.2244 38.3182C27.6809 39.0379 25.9148 39.3977 23.9261 39.3977Z" fill="white"/>
</svg>
